<?xml version="1.0" standalone="no"?>
<!DOCTYPE svg PUBLIC "-//W3C//DTD SVG 20010904//EN"
 "http://www.w3.org/TR/2001/REC-SVG-20010904/DTD/svg10.dtd">
<svg version="1.0" xmlns="http://www.w3.org/2000/svg"
 width="16.000000pt" height="16.000000pt" viewBox="0 0 16.000000 16.000000"
 preserveAspectRatio="xMidYMid meet">
<metadata>
Created by potrace 1.11, written by Peter Selinger 2001-2013
</metadata>
<g transform="translate(0.000000,16.000000) scale(0.006154,-0.006154)"
fill="#000000" stroke="none">
<path d="M0 1300 l0 -1300 1300 0 1300 0 0 1300 0 1300 -1300 0 -1300 0 0
-1300z m2510 427 l0 -783 -420 -417 -420 -418 1 563 0 563 149 88 c82 49 153
94 158 100 5 7 35 71 66 144 39 89 55 139 51 153 -4 12 -31 76 -60 142 l-53
122 -149 92 -149 92 -192 31 -192 32 -193 -32 -194 -32 -148 -91 -147 -91 -59
-135 c-32 -74 -59 -140 -59 -147 0 -22 111 -268 128 -284 23 -22 280 -179 292
-179 6 0 10 -146 10 -405 l0 -406 -47 28 c-27 15 -214 127 -418 249 l-370 222
-3 791 -2 791 1210 0 1210 0 0 -783z m-1016 378 l159 -27 116 -70 c64 -39 123
-78 132 -87 18 -17 99 -197 99 -218 0 -26 -91 -219 -108 -229 -9 -5 -34 -20
-54 -33 l-37 -22 34 75 c19 41 35 80 35 86 0 6 -16 45 -35 88 l-36 77 -107 62
c-86 50 -109 59 -115 47 -12 -22 -4 -29 93 -81 88 -47 89 -48 119 -116 17 -38
31 -72 31 -77 0 -9 -9 -12 -152 -55 l-88 -26 -2 -729 -3 -728 -62 36 -63 37 0
672 0 672 -47 -15 c-108 -34 -89 -40 -331 122 -122 82 -221 152 -222 155 0 3
42 28 93 56 82 46 104 53 202 68 154 22 155 23 155 45 0 23 -16 25 -105 10
-33 -6 -87 -14 -120 -19 -44 -7 -87 -24 -164 -68 l-104 -58 -36 -77 c-22 -47
-41 -75 -48 -73 -7 2 -39 25 -72 51 l-58 47 43 100 c24 55 49 106 55 113 6 7
66 47 133 88 l123 76 174 29 c96 16 183 27 194 25 11 -2 91 -15 179 -29z
m-401 -746 c59 -30 57 -9 57 -557 l0 -503 -62 35 -63 35 -3 501 -2 500 26 0
c14 0 35 -5 47 -11z m267 -679 c0 -275 -3 -500 -6 -500 -4 0 -31 14 -60 31
l-54 30 0 470 0 469 60 0 60 0 0 -500z"/>
</g>
</svg>
